<svg width="20" height="20" viewBox="0 0 20 20" fill="none" xmlns="http://www.w3.org/2000/svg">
<path d="M15.5291 14.2319L19.4551 18.1571L18.1581 19.4542L14.2329 15.5281C12.7724 16.6989 10.9558 17.3357 9.08398 17.333C4.52998 17.333 0.833984 13.637 0.833984 9.08301C0.833984 4.52901 4.52998 0.833008 9.08398 0.833008C13.638 0.833008 17.334 4.52901 17.334 9.08301C17.3366 10.9548 16.6999 12.7714 15.5291 14.2319ZM13.6902 13.5518C14.8536 12.3554 15.5033 10.7517 15.5006 9.08301C15.5006 5.53734 12.6287 2.66634 9.08398 2.66634C5.53832 2.66634 2.66732 5.53734 2.66732 9.08301C2.66732 12.6278 5.53832 15.4997 9.08398 15.4997C10.7527 15.5023 12.3564 14.8526 13.5527 13.6893L13.6902 13.5518V13.5518Z" fill="#344C36"/>
</svg>
